<?xml version="1.0" standalone="no"?>
<!DOCTYPE svg PUBLIC "-//W3C//DTD SVG 20010904//EN"
 "http://www.w3.org/TR/2001/REC-SVG-20010904/DTD/svg10.dtd">
<svg version="1.0" xmlns="http://www.w3.org/2000/svg"
 width="1024.000000pt" height="1024.000000pt" viewBox="0 0 1024.000000 1024.000000"
 preserveAspectRatio="xMidYMid meet">

<g transform="translate(0.000000,1024.000000) scale(0.100000,-0.100000)"
fill="#050b11" stroke="none">
<path d="M4985 8995 c-143 -27 -258 -64 -380 -125 -190 -94 -340 -213 -466
-372 -39 -48 -72 -88 -73 -88 -1 0 -44 11 -96 24 -262 66 -541 59 -764 -21
-313 -111 -560 -328 -705 -621 -128 -256 -156 -586 -76 -868 10 -32 39 -105
65 -161 185 -394 559 -660 955 -679 55 -3 115 -7 133 -10 l32 -5 0 -907 c0
-589 4 -920 10 -944 18 -62 87 -113 199 -148 249 -76 611 -122 1109 -142 584
-23 1211 26 1613 128 121 30 176 53 213 90 58 59 56 14 56 1007 l0 914 38 7
c20 3 58 6 83 6 115 0 299 50 434 117 301 150 520 428 616 783 21 76 24 106
23 285 0 184 -2 208 -27 300 -31 119 -124 309 -199 410 -188 251 -447 417
-748 480 -166 35 -390 29 -549 -16 -39 -10 -75 -19 -80 -19 -6 0 -30 26 -54
58 -198 254 -483 430 -822 507 -102 24 -434 29 -540 10z m425 -315 c352 -56
670 -294 821 -616 62 -133 98 -163 184 -154 38 4 87 34 106 64 13 21 19 50 19
88 l0 57 43 13 c26 7 104 12 202 13 138 0 171 -3 240 -23 307 -88 557 -342
636 -647 30 -115 30 -299 1 -417 -64 -257 -230 -462 -467 -573 -113 -54 -194
-75 -315 -82 -228 -13 -442 66 -614 228 l-69 66 -2 204 c-1 171 -3 209 -18
236 -38 71 -130 102 -197 65 -62 -34 -74 -68 -81 -237 -6 -125 -11 -163 -34
-230 -68 -204 -253 -388 -462 -460 -217 -76 -498 -57 -708 47 l-60 29 35 -36
c19 -20 73 -62 120 -93 178 -117 205 -149 198 -242 l-4 -59 45 -7 c67 -10 254
3 352 25 255 57 474 198 644 414 l59 76 66 -67 c65 -67 187 -155 288 -207 l52
-27 0 -874 c0 -822 -1 -874 -17 -882 -30 -16 -200 -51 -348 -71 -488 -69
-1105 -78 -1625 -26 -140 14 -474 66 -535 83 l-30 8 -3 887 c-1 488 1 887 6
887 13 0 185 100 208 121 24 22 50 25 61 5 14 -25 147 -131 224 -179 91 -56
187 -101 268 -123 58 -16 62 -16 81 1 24 22 25 63 2 92 -9 11 -57 47 -107 79
-215 137 -350 276 -450 462 -15 28 -31 52 -34 52 -3 0 -39 -25 -79 -55 -91
-69 -233 -139 -337 -167 -107 -29 -337 -31 -435 -4 -155 42 -338 163 -438 289
-140 176 -200 369 -189 605 7 139 24 207 82 327 113 235 301 395 552 472 80
24 103 27 258 27 159 1 268 -11 305 -34 10 -6 10 -24 1 -88 -14 -96 -4 -152
35 -193 38 -40 87 -54 133 -40 59 17 95 65 130 170 58 172 141 304 271 432
156 153 335 244 554 284 87 16 289 18 376 5z"/>
<path d="M4492 8268 c-7 -7 -12 -24 -12 -40 0 -50 66 -62 91 -17 23 43 -44 92
-79 57z"/>
<path d="M4386 8114 c-9 -8 -16 -24 -16 -34 0 -21 25 -50 43 -50 22 0 57 31
57 50 0 24 -26 50 -50 50 -10 0 -26 -7 -34 -16z"/>
<path d="M3330 7838 c-67 -34 -189 -161 -232 -243 -63 -122 -83 -202 -83 -345
0 -96 4 -138 19 -180 43 -127 127 -240 179 -240 33 0 67 28 67 55 0 13 -16 53
-35 87 -44 82 -65 164 -65 260 0 197 66 324 248 480 49 43 56 81 20 116 -36
32 -67 35 -118 10z"/>
<path d="M2810 7455 c-12 -33 -3 -54 26 -61 49 -13 84 27 58 64 -22 32 -72 30
-84 -3z"/>
<path d="M2810 7286 c-29 -36 13 -92 58 -75 25 9 31 56 10 77 -16 16 -53 15
-68 -2z"/>
<path d="M2871 7041 c-39 -25 7 -153 99 -274 48 -64 146 -145 224 -187 68 -35
76 -36 106 -12 40 33 22 64 -67 113 -112 61 -189 143 -250 266 -40 81 -52 98
-73 101 -14 1 -32 -2 -39 -7z"/>
<path d="M7456 7033 c-4 -5 -23 -41 -42 -82 -27 -59 -51 -91 -117 -155 -87
-86 -152 -125 -252 -151 -32 -8 -64 -20 -71 -26 -22 -18 -17 -57 10 -75 23
-14 30 -14 101 5 185 51 341 176 419 336 40 83 44 114 18 138 -19 18 -53 22
-66 10z"/>
<path d="M6237 5551 c-86 -22 -107 -49 -70 -86 13 -14 28 -16 75 -11 114 13
155 44 123 92 -18 28 -35 29 -128 5z"/>
<path d="M6243 5375 c-76 -12 -103 -27 -103 -55 0 -32 29 -45 95 -43 96 3 143
18 151 50 5 20 2 31 -16 45 -25 20 -27 20 -127 3z"/>
<path d="M4046 5204 c-20 -19 -21 -58 -2 -74 8 -6 40 -15 70 -19 66 -9 116 7
116 37 0 28 -26 45 -89 59 -74 16 -77 16 -95 -3z"/>
<path d="M6233 5196 c-92 -14 -115 -27 -111 -65 3 -25 5 -26 83 -29 44 -1 103
3 130 10 44 11 50 17 53 41 7 58 -12 63 -155 43z"/>
<path d="M4036 5018 c-35 -49 -5 -77 92 -85 96 -8 122 0 122 36 0 33 -21 45
-109 61 -76 14 -88 13 -105 -12z"/>
<path d="M6231 5021 c-87 -13 -116 -21 -127 -36 -17 -23 -17 -27 0 -50 12 -17
21 -18 135 -8 67 6 128 16 136 23 22 18 19 67 -4 80 -11 5 -21 9 -23 9 -2 -1
-54 -9 -117 -18z"/>
<path d="M4030 4841 c-26 -49 6 -74 105 -84 88 -9 129 2 133 35 4 33 -12 42
-99 57 -96 16 -127 14 -139 -8z"/>
<path d="M6289 4856 c-2 -3 -51 -10 -109 -16 -58 -6 -110 -16 -117 -22 -22
-18 -15 -54 13 -67 30 -13 242 3 284 23 28 13 38 49 20 72 -11 13 -80 20 -91
10z"/>
<path d="M4032 4670 c-34 -55 3 -79 136 -87 96 -6 100 -5 112 17 20 37 -11 57
-114 75 -113 19 -119 19 -134 -5z"/>
<path d="M6220 4674 c-41 -7 -99 -13 -127 -13 -39 -1 -58 -6 -73 -21 -24 -24
-24 -30 -6 -55 12 -16 25 -19 77 -17 117 4 253 22 276 38 45 29 18 85 -40 83
-18 -1 -66 -7 -107 -15z"/>
<path d="M4048 4509 c-22 -12 -24 -62 -4 -79 18 -14 214 -35 249 -26 13 3 27
15 30 25 10 40 -14 53 -139 72 -65 10 -119 18 -119 18 0 0 -8 -4 -17 -10z"/>
<path d="M6275 4510 c-22 -5 -94 -14 -160 -20 -97 -10 -123 -16 -137 -32 -17
-19 -14 -46 6 -60 25 -17 311 1 369 24 38 15 47 55 17 80 -24 19 -33 20 -95 8z"/>
<path d="M8630 6103 c-82 -12 -220 -52 -315 -90 -264 -106 -487 -252 -699
-461 -211 -207 -328 -391 -388 -611 -17 -62 -21 -105 -21 -231 0 -145 2 -163
33 -275 26 -93 34 -140 34 -210 1 -82 -2 -96 -32 -160 -48 -102 -165 -215
-556 -538 -269 -223 -557 -458 -805 -657 -435 -349 -584 -471 -628 -513 l-42
-41 -48 41 c-49 40 -268 217 -918 738 -198 158 -412 331 -475 384 -448 371
-504 424 -548 518 -27 57 -27 61 -28 273 0 239 -5 268 -64 397 -78 168 -124
218 -516 552 -171 146 -399 343 -508 436 -286 246 -291 250 -342 250 -76 0
-130 -77 -101 -146 7 -17 187 -192 442 -431 237 -220 438 -413 447 -427 34
-51 13 -113 -43 -126 -33 -8 -30 -10 -525 449 -225 208 -422 387 -439 398
-102 65 -220 -75 -141 -169 28 -34 183 -184 322 -314 329 -307 563 -533 573
-555 16 -36 14 -58 -10 -88 -15 -19 -30 -26 -54 -26 -31 0 -73 36 -472 413
-241 227 -451 422 -467 435 -88 68 -218 -26 -176 -128 7 -16 188 -199 403
-407 216 -207 416 -400 445 -429 41 -40 52 -58 52 -83 0 -44 -14 -66 -49 -80
-42 -18 -55 -9 -216 148 -495 481 -675 647 -712 654 -54 10 -114 -30 -127 -86
-14 -61 15 -95 495 -578 391 -393 478 -476 555 -526 216 -142 401 -179 669
-133 314 54 369 24 716 -380 346 -404 723 -868 1023 -1260 86 -113 211 -276
278 -363 185 -242 276 -317 434 -357 134 -34 233 -22 372 46 103 50 186 137
378 394 499 667 1109 1429 1445 1805 226 253 345 317 558 301 312 -24 401 -18
566 35 289 92 555 355 741 730 90 181 133 303 176 499 30 141 33 457 5 560
-61 219 -200 363 -402 415 -55 14 -228 19 -295 8z m-345 -332 c-262 -172 -546
-474 -673 -719 -63 -123 -89 -205 -103 -340 -15 -134 4 -273 55 -399 18 -45
30 -80 26 -78 -21 13 -107 158 -132 222 -158 407 112 921 657 1254 68 42 230
119 250 119 5 0 -31 -27 -80 -59z m832 -772 c-47 -130 -86 -212 -153 -326
-201 -344 -440 -536 -683 -549 -63 -3 -70 -2 -39 6 64 16 229 105 313 167 192
143 395 409 546 715 24 48 45 86 46 84 2 -2 -12 -46 -30 -97z"/>
</g>
</svg>
