<?xml version="1.0" standalone="no"?>
<!DOCTYPE svg PUBLIC "-//W3C//DTD SVG 20010904//EN"
 "http://www.w3.org/TR/2001/REC-SVG-20010904/DTD/svg10.dtd">
<svg version="1.0" xmlns="http://www.w3.org/2000/svg"
 width="1024.000000pt" height="1024.000000pt" viewBox="0 0 1024.000000 1024.000000"
 preserveAspectRatio="xMidYMid meet">

<g transform="translate(0.000000,1024.000000) scale(0.100000,-0.100000)"
fill="#ffffff" stroke="none">
<path d="M3155 8726 c-63 -29 -118 -90 -159 -175 -29 -63 -31 -72 -31 -186 1
-166 14 -196 204 -460 134 -187 157 -269 105 -390 -35 -81 -41 -113 -33 -159
29 -164 238 -172 370 -14 90 108 125 211 115 338 -10 136 -57 236 -184 393
-191 235 -203 256 -210 347 -3 48 0 82 12 116 34 100 13 170 -60 200 -46 19
-71 17 -129 -10z"/>
<path d="M5335 7898 c-122 -41 -209 -119 -264 -239 -55 -117 -62 -241 -20
-373 10 -33 17 -61 16 -62 -1 -2 -59 -21 -127 -44 -290 -95 -584 -271 -809
-486 l-90 -85 -47 16 c-40 13 -56 14 -96 5 -193 -47 -230 -288 -59 -388 37
-22 59 -27 111 -27 60 0 71 -4 135 -44 117 -74 260 -143 475 -229 235 -94 333
-152 430 -252 118 -122 178 -256 199 -445 6 -54 9 -100 7 -103 -10 -9 -98 19
-210 67 -301 129 -405 140 -532 56 -88 -57 -116 -152 -73 -241 38 -79 112
-102 213 -68 27 10 60 14 79 10 18 -3 95 -40 172 -83 272 -148 364 -182 456
-168 36 6 36 6 72 -63 50 -94 103 -257 122 -372 8 -52 18 -176 21 -275 6 -211
20 -300 64 -414 62 -159 211 -345 358 -445 l57 -39 -70 7 c-38 3 -157 16 -264
27 -219 24 -263 20 -343 -30 -53 -34 -88 -97 -88 -160 0 -52 18 -89 64 -129
20 -17 36 -33 36 -34 0 -2 -759 -3 -1688 -3 l-1687 0 -47 -23 c-26 -13 -66
-44 -88 -69 -71 -81 -71 -84 -68 -654 3 -489 4 -505 24 -549 28 -59 86 -117
143 -144 l46 -21 2910 0 2910 0 57 28 c32 16 75 48 97 73 71 81 71 77 71 630
0 553 -1 558 -72 639 -21 24 -60 54 -86 67 -47 23 -47 23 -562 28 l-514 5 43
20 c24 10 75 41 113 67 l69 48 262 -1 c200 -1 282 3 349 15 437 80 736 419
809 917 18 123 15 420 -5 569 -58 429 -166 773 -416 1325 -229 506 -286 702
-260 893 20 146 65 239 159 332 199 195 478 199 671 10 81 -79 117 -159 134
-298 14 -115 25 -142 73 -173 57 -38 146 -14 191 51 19 28 22 46 22 124 0 117
-20 199 -75 311 -170 349 -555 504 -933 376 -111 -39 -181 -82 -275 -171 -161
-152 -240 -313 -268 -545 -30 -247 23 -456 246 -960 243 -550 341 -839 401
-1181 35 -201 45 -513 20 -659 -51 -300 -202 -500 -450 -596 -69 -27 -204 -54
-215 -43 -3 2 9 19 25 37 53 56 89 109 141 207 103 193 139 368 130 640 -4
137 -11 198 -30 281 -71 299 -192 557 -380 809 -106 141 -364 395 -562 552
-267 212 -339 300 -433 529 -9 24 -18 28 -74 34 -170 20 -348 124 -348 204 0
16 9 40 21 55 29 37 72 34 139 -9 219 -141 523 -116 708 58 71 68 145 178 173
258 29 85 31 246 5 334 -43 145 -161 292 -283 354 -186 93 -410 76 -577 -43
-122 -88 -212 -221 -237 -351 -7 -33 -13 -62 -15 -64 -2 -2 -37 11 -79 29 -53
24 -75 39 -75 51 0 36 50 176 81 223 17 28 58 78 91 112 59 61 60 64 49 95
-30 86 -137 206 -222 249 -104 54 -246 65 -354 28z m-223 -1048 c107 -30 166
-154 123 -257 -30 -72 -93 -113 -170 -113 -60 0 -103 19 -142 63 -94 107 -48
266 87 305 47 14 59 14 102 2z m-1043 -4314 c12 -13 24 -39 27 -57 5 -30 12
-37 52 -54 54 -22 124 -83 159 -138 103 -163 35 -386 -145 -474 -50 -24 -69
-28 -147 -28 -77 0 -98 4 -147 27 -68 31 -137 99 -170 165 -19 41 -23 63 -23
148 0 92 2 104 28 148 38 65 95 119 156 147 42 20 50 29 55 58 8 53 41 82 91
82 31 0 47 -6 64 -24z m-1229 -211 c0 -119 12 -155 60 -180 66 -34 154 -2 177
65 7 19 12 77 12 128 1 105 3 107 73 63 89 -57 150 -170 149 -279 0 -114 -38
-196 -122 -261 -124 -99 -299 -107 -425 -20 -97 66 -147 162 -146 278 0 125
47 213 148 280 73 48 74 46 74 -74z m2844 -139 c49 -20 76 -60 76 -113 0 -97
-115 -150 -189 -87 -18 15 -35 42 -41 65 -15 53 10 107 60 131 42 22 51 22 94
4z m534 -6 c102 -62 62 -220 -54 -220 -97 0 -148 82 -109 176 25 60 103 81
163 44z m502 5 c38 -19 60 -63 60 -116 0 -33 -6 -47 -34 -75 -29 -29 -41 -34
-80 -34 -64 0 -106 38 -113 100 -6 59 9 95 49 120 39 24 78 25 118 5z"/>
<path d="M2755 7446 c-45 -20 -110 -96 -133 -157 -62 -166 -31 -294 119 -496
104 -139 132 -199 132 -282 1 -55 -5 -77 -31 -131 -36 -74 -40 -120 -13 -170
40 -75 139 -97 222 -48 63 37 120 102 160 183 33 67 34 74 33 180 -1 160 -30
223 -206 434 -129 156 -146 207 -113 345 12 50 12 64 0 92 -24 57 -102 80
-170 50z"/>
<path d="M2074 6001 c-52 -32 -74 -68 -74 -123 0 -79 5 -85 304 -398 56 -58
139 -146 186 -195 47 -50 175 -185 285 -301 110 -115 212 -223 227 -240 19
-20 31 -49 39 -90 6 -32 24 -83 40 -111 l29 -53 -409 0 -410 0 -79 88 c-99
108 -578 645 -650 729 -81 93 -136 112 -217 73 -69 -33 -103 -121 -76 -193 5
-14 49 -70 98 -124 92 -104 418 -465 489 -543 23 -25 69 -76 103 -115 61 -69
61 -69 61 -132 l0 -63 -160 0 c-179 0 -209 -7 -253 -59 -52 -62 -29 -166 45
-211 29 -18 51 -20 201 -20 l167 0 0 -252 c1 -139 5 -284 10 -322 18 -144 113
-275 247 -342 l58 -29 860 0 860 0 67 33 c123 61 224 190 248 321 5 29 10 175
10 322 l0 269 160 0 c142 0 165 2 201 20 74 38 100 125 61 199 -33 62 -65 71
-253 71 l-167 0 -4 111 -3 111 -33 29 -32 29 -319 0 -319 0 -103 115 c-142
158 -171 180 -309 230 -30 10 -57 31 -80 59 -31 39 -97 115 -364 426 -44 52
-155 182 -246 290 -286 338 -321 378 -345 394 -34 22 -113 20 -151 -3z"/>
<path d="M3408 5957 c-57 -30 -80 -65 -86 -131 -6 -72 0 -93 43 -149 l36 -47
-30 -38 c-57 -70 -54 -140 8 -215 36 -43 39 -50 29 -78 -7 -22 -7 -38 2 -60
48 -114 222 -15 207 118 -4 38 -21 70 -72 139 -6 9 -3 20 12 36 35 37 55 94
47 135 -4 20 -26 59 -51 90 -47 57 -48 63 -37 131 5 33 3 47 -10 61 -26 29
-52 31 -98 8z"/>
</g>
</svg>
